<?xml version="1.0" encoding="utf-8"?>
<!-- Generator: Adobe Illustrator 21.0.0, SVG Export Plug-In . SVG Version: 6.00 Build 0)  -->
<svg version="1.1" id="Layer_1" xmlns="http://www.w3.org/2000/svg" xmlns:xlink="http://www.w3.org/1999/xlink" x="0px" y="0px"
	 viewBox="0 0 16 20" style="enable-background:new 0 0 16 20;" xml:space="preserve">
<style type="text/css">
	.st0{fill:#EEEEEE;}
</style>
<title>arrow-right</title>
<desc>Created with Sketch.</desc>
<g>
	<g>
		<path class="st0" d="M5.7,5c0.1,0,0.1,0,0.2,0.1l4.2,4.2c0.1,0.1,0.1,0.1,0.1,0.2c0,0.1,0,0.1-0.1,0.2l-4.2,4.2
			c-0.1,0.1-0.1,0.1-0.2,0.1c-0.1,0-0.1,0-0.2-0.1l-0.4-0.4C5,13.3,5,13.2,5,13.2C5,13.1,5,13,5.1,13l3.5-3.5L5.1,5.9
			C5,5.9,5,5.8,5,5.7c0-0.1,0-0.1,0.1-0.2l0.4-0.4C5.6,5,5.7,5,5.7,5L5.7,5z"/>
	</g>
</g>
</svg>
