<?xml version="1.0" encoding="utf-8"?>
<!-- Generator: Adobe Illustrator 21.0.0, SVG Export Plug-In . SVG Version: 6.00 Build 0)  -->
<svg version="1.1"
	 id="Layer_1" xmlns:cc="http://creativecommons.org/ns#" xmlns:dc="http://purl.org/dc/elements/1.1/" xmlns:inkscape="http://www.inkscape.org/namespaces/inkscape" xmlns:rdf="http://www.w3.org/1999/02/22-rdf-syntax-ns#" xmlns:sodipodi="http://sodipodi.sourceforge.net/DTD/sodipodi-0.dtd" xmlns:svg="http://www.w3.org/2000/svg"
	 xmlns="http://www.w3.org/2000/svg" xmlns:xlink="http://www.w3.org/1999/xlink" x="0px" y="0px" viewBox="0 0 100 125"
	 style="enable-background:new 0 0 100 125;" xml:space="preserve">
<style type="text/css">
	.st0{fill:#FFFFFF;}
</style>
<g transform="translate(0,-952.36218)">
	<path class="st0" d="M8,987.4c-1.1,0-2,0.9-2,2v50c0,1.1,0.9,2,2,2h84c1.1,0,2-0.9,2-2v-50c0-1.1-0.9-2-2-2H8z M9.6,989.4h80.9
		L50,1023L9.6,989.4z M8,990.6l27.4,22.8L8,1038V990.6z M92,990.6v47.4l-27.4-24.6L92,990.6z M36.9,1014.7l12.4,10.4
		c0.4,0.3,0.9,0.3,1.2,0l12.4-10.4l27.5,24.6H9.5L36.9,1014.7z"/>
</g>
</svg>
